<svg xmlns="http://www.w3.org/2000/svg" viewBox="0 0 80 64" fill="none" stroke="red" stroke-width="3" stroke-linecap="round" stroke-linejoin="round">
  <!-- Clipboard -->
  <rect x="10" y="8" width="36" height="48" rx="4" ry="4" fill="none" stroke="red"/>
  <rect x="20" y="6" width="20" height="4" fill="red"/>
  <!-- Lines on clipboard -->
  <line x1="18" y1="20" x2="38" y2="20" stroke="red"/>
  <line x1="18" y1="28" x2="38" y2="28" stroke="red"/>
  <line x1="18" y1="36" x2="38" y2="36" stroke="red"/>
  <line x1="18" y1="44" x2="38" y2="44" stroke="red"/>
  
  <!-- Improved Apple -->
  <path d="M60 36 
           C64 30, 64 24, 60 20 
           C56 16, 48 16, 44 20 
           C40 24, 40 30, 44 36 
           C48 40, 56 40, 60 36 Z" 
        fill="none" stroke="red"/>
  <path d="M52 16 
           C52 14, 54 14, 54 16 
           C54 18, 52 18, 52 16 Z" 
        fill="red" stroke="red"/>
  <line x1="52" y1="14" x2="52" y2="12" stroke="red"/>

  <!-- Apple Stem -->
  <path d="M54 12 
           C54 10, 56 10, 56 12 
           C56 14, 54 14, 54 12 Z" 
        fill="red" stroke="red"/>
  <line x1="54" y1="10" x2="54" y2="8" stroke="red"/>
</svg>
